<?xml version="1.0" encoding="UTF-8" standalone="no"?>
<!-- Created with Inkscape (http://www.inkscape.org/) -->

<svg
   width="512"
   height="512"
   viewBox="0 0 512 512"
   version="1.1"
   id="svg1"
   xml:space="preserve"
   inkscape:version="1.4 (86a8ad7, 2024-10-11)"
   sodipodi:docname="popup1.svg"
   xmlns:inkscape="http://www.inkscape.org/namespaces/inkscape"
   xmlns:sodipodi="http://sodipodi.sourceforge.net/DTD/sodipodi-0.dtd"
   xmlns="http://www.w3.org/2000/svg"
   xmlns:svg="http://www.w3.org/2000/svg"><sodipodi:namedview
     id="namedview1"
     pagecolor="#ffffff"
     bordercolor="#000000"
     borderopacity="0.25"
     inkscape:showpageshadow="2"
     inkscape:pageopacity="0.0"
     inkscape:pagecheckerboard="0"
     inkscape:deskcolor="#d1d1d1"
     inkscape:document-units="px"
     inkscape:zoom="1.5097656"
     inkscape:cx="256"
     inkscape:cy="256"
     inkscape:window-width="1920"
     inkscape:window-height="991"
     inkscape:window-x="-9"
     inkscape:window-y="555"
     inkscape:window-maximized="1"
     inkscape:current-layer="layer1" /><defs
     id="defs1"><rect
       x="205.32988"
       y="357.00906"
       width="380.85382"
       height="75.508409"
       id="rect1" /></defs><g
     inkscape:label="Vrstva 1"
     inkscape:groupmode="layer"
     id="layer1"><g
       id="g1"
       transform="matrix(0.26934316,0,0,0.26913012,119.6174,37.374147)"><path
         d="m 588,629.71 c -15.252,2.67 -35.063,7.999 -48.525,13.052 -15.564,5.844 -45.352,15.691 -56.539,18.693 -7.683,2.061 -12.878,6.131 -16.776,13.141 -1.805,3.247 -4.689,8.073 -6.409,10.724 -4.529,6.984 -4.39,14.159 0.498,25.68 12.089,28.496 22.405,56.077 28.685,76.698 3.469,11.392 7.416,17.516 13.217,20.511 13.992,7.223 29.769,-2.675 29.821,-18.709 0.021,-6.173 -1.141,-10.477 -5.938,-22 -10.038,-24.11 -15.904,-40.963 -14.684,-42.184 2.307,-2.306 12.312,13.615 25.821,41.088 l 7.329,14.904 0.332,17.89 c 0.597,32.25 -3.629,44.248 -23.153,65.717 -9.813,10.791 -15.565,15.186 -29.179,22.296 -7.823,4.086 -8.277,4.192 -20.5,4.78 -16.01,0.771 -20.626,3.082 -24.452,12.241 -4.032,9.65 1.214,20.786 11.952,25.369 5.97,2.549 23.33,3.084 32.644,1.006 9.138,-2.038 14.578,-4.546 30.877,-14.234 11.38,-6.763 14.287,-9.097 25.239,-20.258 13.297,-13.553 15.914,-16.976 23.021,-30.115 10.372,-19.174 13.711,-35.142 13.716,-65.59 0.004,-28.268 -0.354,-29.58 -16.908,-62.001 -15.08,-29.535 -16.965,-32.495 -26.873,-42.211 -4.095,-4.015 -7.282,-7.453 -7.081,-7.639 0.899,-0.831 23.148,-9.525 30.365,-11.865 16.442,-5.331 25.282,-6.892 43,-7.592 18.3,-0.723 20.526,-1.309 25.686,-6.763 1.478,-1.561 3.165,-4.106 3.75,-5.654 1.469,-3.887 1.332,-11.109 -0.283,-14.967 -1.831,-4.373 -8.677,-10.353 -13.332,-11.646 C 619.677,629.06 593.258,628.79 588,629.71 m -225.64,37.213 c -7.518,2.707 -25.991,13.007 -30.748,17.144 -2.262,1.967 -6.587,5.397 -9.612,7.622 -8.058,5.929 -12.863,10.58 -23.052,22.311 -10.108,11.64 -17.063,24.317 -23.04,42 -3.047,9.014 -3.236,10.446 -3.682,28 -0.561,22.043 0.762,36.04 4.361,46.148 4.57,12.835 12.145,27.416 18.884,36.352 3.591,4.76 6.529,9.072 6.529,9.58 0,0.509 -1.829,2.578 -4.065,4.597 -2.235,2.02 -4.71,4.922 -5.5,6.448 -1.918,3.71 -1.821,12.213 0.186,16.175 3.938,7.778 7.082,9.364 28.932,14.601 9.321,2.234 19.422,4.794 22.447,5.689 8.29,2.453 19.76,7.989 25.444,12.28 7.916,5.976 11.413,7.411 19.316,7.923 5.329,0.346 8.437,0.022 11.686,-1.219 4.874,-1.862 10.981,-7.957 13.134,-13.111 5.031,-12.04 0.843,-37.866 -10.977,-67.688 -11.853,-29.909 -11.569,-28.942 -11.416,-38.799 0.128,-8.229 -0.085,-9.276 -2.774,-13.605 -3.767,-6.066 -9.009,-8.882 -16.452,-8.84 -6.402,0.037 -13.451,3.54 -16.917,8.407 -5.066,7.115 -6.421,18.682 -3.579,30.562 1.451,6.069 8.573,25.518 14.563,39.77 1.796,4.273 2.961,8.075 2.587,8.448 -0.373,0.373 -2.576,0.127 -4.897,-0.547 -2.32,-0.674 -8.718,-2.373 -14.218,-3.777 -5.5,-1.403 -10.398,-2.936 -10.885,-3.407 -0.51,-0.494 -0.192,-2.586 0.75,-4.942 2.218,-5.542 2.09,-13.233 -0.298,-17.913 -1.063,-2.084 -4.685,-7.129 -8.049,-11.211 -7.906,-9.593 -16.635,-27.008 -18.004,-35.921 -1.507,-9.807 -1.231,-29.032 0.539,-37.603 4.488,-21.727 17.733,-38.319 47.127,-59.036 2.449,-1.726 6.561,-3.661 9.137,-4.299 13.014,-3.226 14.951,-4.086 18.938,-8.412 4.9,-5.316 6.611,-10.227 6.024,-17.297 -1.209,-14.58 -16.306,-22.232 -32.419,-16.43"
         stroke="none"
         fill="#f8c303"
         fill-rule="evenodd"
         id="path1" /><path
         d="m 795.5,192.88 c -2.75,0.995 -8.656,3.419 -13.125,5.388 -12.218,5.383 -24.73,9.293 -35.875,11.212 -5.5,0.948 -14.05,2.762 -19,4.033 -4.95,1.27 -15.525,3.51 -23.5,4.977 -7.975,1.467 -24.625,4.62 -37,7.007 -19.522,3.765 -44.433,7.981 -58.855,9.962 -21.268,2.921 -26.099,27.49 -7.278,37.01 5.554,2.81 16.358,3.084 28.219,0.716 5.728,-1.143 14.014,-2.588 18.414,-3.211 4.4,-0.623 15.2,-2.668 24,-4.544 8.8,-1.877 20.725,-4.108 26.5,-4.958 11.799,-1.739 31.94,-5.793 39.5,-7.952 2.75,-0.785 10.85,-2.57 18,-3.965 7.15,-1.396 16.571,-3.674 20.935,-5.061 4.765,-1.515 8.299,-2.16 8.845,-1.614 1.098,1.098 -4.393,44.791 -8.371,66.62 -2.782,15.262 -3.32,16.585 -8.533,20.942 -10.459,8.742 -11.001,20.198 -1.457,30.812 8.302,9.234 20.181,12.297 29.742,7.668 5.433,-2.63 8.641,-6.441 11.217,-13.327 2.568,-6.862 9.682,-42.026 11.046,-54.595 0.567,-5.225 1.501,-11.974 2.075,-14.999 4.347,-22.903 7.055,-62.924 5.055,-74.718 -2.741,-16.167 -14.869,-23.075 -30.554,-17.403 m -84.516,69.973 c -1.916,1.02 -4.834,3.76 -6.484,6.09 -2.783,3.93 -3,4.871 -3,13.003 v 8.767 l -7,7.823 c -11.155,12.467 -19.361,20.552 -28.723,28.3 -4.798,3.97 -10.423,9.252 -12.5,11.738 -2.077,2.485 -7.611,7.585 -12.297,11.332 -11.907,9.522 -28.14,24.313 -43.45,39.591 -7.166,7.152 -16.855,16.333 -21.53,20.403 -8.712,7.584 -30.689,27.938 -55.478,51.381 -21.554,20.384 -44.949,44.401 -51.598,52.969 -3.308,4.263 -6.412,7.75 -6.898,7.75 -0.486,0 -1.614,-2.587 -2.506,-5.75 -4.032,-14.295 -16.33,-52.182 -24.101,-74.25 -3.001,-8.525 -7.207,-21.125 -9.344,-28 -2.138,-6.875 -5.903,-18.125 -8.367,-25 -18.855,-52.608 -18.13,-51.019 -25.56,-55.994 -8.886,-5.95 -18.677,-4.886 -26.167,2.844 -5.736,5.921 -7.093,10.347 -8.015,26.15 -0.823,14.117 -2.742,21.324 -9.455,35.5 -7.486,15.812 -36.749,53.586 -53.443,68.988 -2.987,2.757 -11.987,11.061 -20,18.453 -8.012,7.393 -18.393,17.464 -23.068,22.38 -22.685,23.855 -74.755,76.95 -79.389,80.95 -2.876,2.483 -8.884,6.352 -13.351,8.599 -10.608,5.333 -13.53,9.009 -14.085,17.717 -0.345,5.428 -0.036,6.974 2.136,10.68 5.635,9.615 20.084,12.904 32.242,7.337 9.63,-4.409 21.249,-14.561 46.09,-40.273 13.195,-13.657 32.51,-33.645 42.924,-44.417 10.413,-10.773 25.413,-25.623 33.333,-33 18.716,-17.434 30.577,-29.224 41.194,-40.942 8.646,-9.545 34.699,-44.337 38.387,-51.264 1.089,-2.046 2.439,-3.578 3,-3.402 0.958,0.299 13.351,35.835 20.992,60.194 1.897,6.05 5.308,16.175 7.579,22.5 2.271,6.325 7.277,24.1 11.125,39.5 6.875,27.52 6.977,28.115 5.909,34.693 -1.562,9.627 -1.352,14.736 0.909,22.055 6.222,20.146 30.196,27.688 42.709,13.436 5.319,-6.058 6.585,-14.292 3.796,-24.684 -1.919,-7.148 -1.881,-11.353 0.136,-15.3 0.9,-1.76 6.412,-9.926 12.25,-18.147 12.3,-17.32 30.018,-36.507 57.302,-62.053 9.986,-9.35 23.591,-22.211 30.234,-28.58 10.776,-10.332 26.259,-24.214 40.989,-36.751 2.799,-2.382 12.064,-11.412 20.589,-20.066 8.525,-8.654 20.225,-19.525 26,-24.158 5.775,-4.633 14.1,-12.028 18.5,-16.434 4.4,-4.406 12.27,-11.809 17.489,-16.451 16.908,-15.038 40.403,-42.059 45.838,-52.718 6.632,-13.008 1.739,-24.782 -13.299,-31.997 -8.35,-4.007 -16.768,-4.564 -22.544,-1.492"
         stroke="none"
         fill="#0df505"
         fill-rule="evenodd"
         id="path2" /><path
         d="M 477.508,40.041 C 411.145,44.653 351.683,60.631 294.606,89.188 201.814,135.616 127.616,209.814 81.188,302.606 14.333,436.229 14.439,594.102 81.476,727.953 122.664,810.191 186.386,878.424 265.885,925.416 389.886,998.713 544.3,1011.077 679,958.494 771.951,922.209 850.613,858.238 905.249,774.5 c 40.55,-62.148 65.294,-131.309 74.419,-208 2.553,-21.463 2.553,-81.537 0,-103 C 968.128,366.508 931.934,282.234 869.917,207.954 857.292,192.832 831.628,166.959 816,153.598 740.797,89.303 648.197,50.26 549,41.024 532.811,39.517 492.942,38.969 477.508,40.041 M 795.5,192.88 c -2.75,0.995 -8.656,3.419 -13.125,5.388 -12.218,5.383 -24.73,9.293 -35.875,11.212 -5.5,0.948 -14.05,2.762 -19,4.033 -4.95,1.27 -15.525,3.51 -23.5,4.977 -7.975,1.467 -24.625,4.62 -37,7.007 -19.522,3.765 -44.433,7.981 -58.855,9.962 -21.268,2.921 -26.099,27.49 -7.278,37.01 5.554,2.81 16.358,3.084 28.219,0.716 5.728,-1.143 14.014,-2.588 18.414,-3.211 4.4,-0.623 15.2,-2.668 24,-4.544 8.8,-1.877 20.725,-4.108 26.5,-4.958 11.799,-1.739 31.94,-5.793 39.5,-7.952 2.75,-0.785 10.85,-2.57 18,-3.965 7.15,-1.396 16.571,-3.674 20.935,-5.061 4.765,-1.515 8.299,-2.16 8.845,-1.614 1.098,1.098 -4.393,44.791 -8.371,66.62 -2.782,15.262 -3.32,16.585 -8.533,20.942 -10.459,8.742 -11.001,20.198 -1.457,30.812 8.302,9.234 20.181,12.297 29.742,7.668 5.433,-2.63 8.641,-6.441 11.217,-13.327 2.568,-6.862 9.682,-42.026 11.046,-54.595 0.567,-5.225 1.501,-11.974 2.075,-14.999 4.347,-22.903 7.055,-62.924 5.055,-74.718 -2.741,-16.167 -14.869,-23.075 -30.554,-17.403 m -84.516,69.973 c -1.916,1.02 -4.834,3.76 -6.484,6.09 -2.783,3.93 -3,4.871 -3,13.003 v 8.767 l -7,7.823 c -11.155,12.467 -19.361,20.552 -28.723,28.3 -4.798,3.97 -10.423,9.252 -12.5,11.738 -2.077,2.485 -7.611,7.585 -12.297,11.332 -11.907,9.522 -28.14,24.313 -43.45,39.591 -7.166,7.152 -16.855,16.333 -21.53,20.403 -8.712,7.584 -30.689,27.938 -55.478,51.381 -21.554,20.384 -44.949,44.401 -51.598,52.969 -3.308,4.263 -6.412,7.75 -6.898,7.75 -0.486,0 -1.614,-2.587 -2.506,-5.75 -4.032,-14.295 -16.33,-52.182 -24.101,-74.25 -3.001,-8.525 -7.207,-21.125 -9.344,-28 -2.138,-6.875 -5.903,-18.125 -8.367,-25 -18.855,-52.608 -18.13,-51.019 -25.56,-55.994 -8.886,-5.95 -18.677,-4.886 -26.167,2.844 -5.736,5.921 -7.093,10.347 -8.015,26.15 -0.823,14.117 -2.742,21.324 -9.455,35.5 -7.486,15.812 -36.749,53.586 -53.443,68.988 -2.987,2.757 -11.987,11.061 -20,18.453 -8.012,7.393 -18.393,17.464 -23.068,22.38 -22.685,23.855 -74.755,76.95 -79.389,80.95 -2.876,2.483 -8.884,6.352 -13.351,8.599 -10.608,5.333 -13.53,9.009 -14.085,17.717 -0.345,5.428 -0.036,6.974 2.136,10.68 5.635,9.615 20.084,12.904 32.242,7.337 9.63,-4.409 21.249,-14.561 46.09,-40.273 13.195,-13.657 32.51,-33.645 42.924,-44.417 10.413,-10.773 25.413,-25.623 33.333,-33 18.716,-17.434 30.577,-29.224 41.194,-40.942 8.646,-9.545 34.699,-44.337 38.387,-51.264 1.089,-2.046 2.439,-3.578 3,-3.402 0.958,0.299 13.351,35.835 20.992,60.194 1.897,6.05 5.308,16.175 7.579,22.5 2.271,6.325 7.277,24.1 11.125,39.5 6.875,27.52 6.977,28.115 5.909,34.693 -1.562,9.627 -1.352,14.736 0.909,22.055 6.222,20.146 30.196,27.688 42.709,13.436 5.319,-6.058 6.585,-14.292 3.796,-24.684 -1.919,-7.148 -1.881,-11.353 0.136,-15.3 0.9,-1.76 6.412,-9.926 12.25,-18.147 12.3,-17.32 30.018,-36.507 57.302,-62.053 9.986,-9.35 23.591,-22.211 30.234,-28.58 10.776,-10.332 26.259,-24.214 40.989,-36.751 2.799,-2.382 12.064,-11.412 20.589,-20.066 8.525,-8.654 20.225,-19.525 26,-24.158 5.775,-4.633 14.1,-12.028 18.5,-16.434 4.4,-4.406 12.27,-11.809 17.489,-16.451 16.908,-15.038 40.403,-42.059 45.838,-52.718 6.632,-13.008 1.739,-24.782 -13.299,-31.997 -8.35,-4.007 -16.768,-4.564 -22.544,-1.492 M 588,629.71 c -15.252,2.67 -35.063,7.999 -48.525,13.052 -15.564,5.844 -45.352,15.691 -56.539,18.693 -7.683,2.061 -12.878,6.131 -16.776,13.141 -1.805,3.247 -4.689,8.073 -6.409,10.724 -4.529,6.984 -4.39,14.159 0.498,25.68 12.089,28.496 22.405,56.077 28.685,76.698 3.469,11.392 7.416,17.516 13.217,20.511 13.992,7.223 29.769,-2.675 29.821,-18.709 0.021,-6.173 -1.141,-10.477 -5.938,-22 -10.038,-24.11 -15.904,-40.963 -14.684,-42.184 2.307,-2.306 12.312,13.615 25.821,41.088 l 7.329,14.904 0.332,17.89 c 0.597,32.25 -3.629,44.248 -23.153,65.717 -9.813,10.791 -15.565,15.186 -29.179,22.296 -7.823,4.086 -8.277,4.192 -20.5,4.78 -16.01,0.771 -20.626,3.082 -24.452,12.241 -4.032,9.65 1.214,20.786 11.952,25.369 5.97,2.549 23.33,3.084 32.644,1.006 9.138,-2.038 14.578,-4.546 30.877,-14.234 11.38,-6.763 14.287,-9.097 25.239,-20.258 13.297,-13.553 15.914,-16.976 23.021,-30.115 10.372,-19.174 13.711,-35.142 13.716,-65.59 0.004,-28.268 -0.354,-29.58 -16.908,-62.001 -15.08,-29.535 -16.965,-32.495 -26.873,-42.211 -4.095,-4.015 -7.282,-7.453 -7.081,-7.639 0.899,-0.831 23.148,-9.525 30.365,-11.865 16.442,-5.331 25.282,-6.892 43,-7.592 18.3,-0.723 20.526,-1.309 25.686,-6.763 1.478,-1.561 3.165,-4.106 3.75,-5.654 1.469,-3.887 1.332,-11.109 -0.283,-14.967 -1.831,-4.373 -8.677,-10.353 -13.332,-11.646 C 619.677,629.06 593.258,628.79 588,629.71 m -225.64,37.213 c -7.518,2.707 -25.991,13.007 -30.748,17.144 -2.262,1.967 -6.587,5.397 -9.612,7.622 -8.058,5.929 -12.863,10.58 -23.052,22.311 -10.108,11.64 -17.063,24.317 -23.04,42 -3.047,9.014 -3.236,10.446 -3.682,28 -0.561,22.043 0.762,36.04 4.361,46.148 4.57,12.835 12.145,27.416 18.884,36.352 3.591,4.76 6.529,9.072 6.529,9.58 0,0.509 -1.829,2.578 -4.065,4.597 -2.235,2.02 -4.71,4.922 -5.5,6.448 -1.918,3.71 -1.821,12.213 0.186,16.175 3.938,7.778 7.082,9.364 28.932,14.601 9.321,2.234 19.422,4.794 22.447,5.689 8.29,2.453 19.76,7.989 25.444,12.28 7.916,5.976 11.413,7.411 19.316,7.923 5.329,0.346 8.437,0.022 11.686,-1.219 4.874,-1.862 10.981,-7.957 13.134,-13.111 5.031,-12.04 0.843,-37.866 -10.977,-67.688 -11.853,-29.909 -11.569,-28.942 -11.416,-38.799 0.128,-8.229 -0.085,-9.276 -2.774,-13.605 -3.767,-6.066 -9.009,-8.882 -16.452,-8.84 -6.402,0.037 -13.451,3.54 -16.917,8.407 -5.066,7.115 -6.421,18.682 -3.579,30.562 1.451,6.069 8.573,25.518 14.563,39.77 1.796,4.273 2.961,8.075 2.587,8.448 -0.373,0.373 -2.576,0.127 -4.897,-0.547 -2.32,-0.674 -8.718,-2.373 -14.218,-3.777 -5.5,-1.403 -10.398,-2.936 -10.885,-3.407 -0.51,-0.494 -0.192,-2.586 0.75,-4.942 2.218,-5.542 2.09,-13.233 -0.298,-17.913 -1.063,-2.084 -4.685,-7.129 -8.049,-11.211 -7.906,-9.593 -16.635,-27.008 -18.004,-35.921 -1.507,-9.807 -1.231,-29.032 0.539,-37.603 4.488,-21.727 17.733,-38.319 47.127,-59.036 2.449,-1.726 6.561,-3.661 9.137,-4.299 13.014,-3.226 14.951,-4.086 18.938,-8.412 4.9,-5.316 6.611,-10.227 6.024,-17.297 -1.209,-14.58 -16.306,-22.232 -32.419,-16.43"
         stroke="none"
         fill="#444543"
         fill-rule="evenodd"
         id="path3" /></g><rect
       style="fill:#279af1;stroke-width:1.42602;fill-opacity:1"
       id="rect2"
       width="330"
       height="51.001293"
       x="94.71669"
       y="342.5" /><text
       xml:space="preserve"
       id="text1"
       style="font-style:normal;font-variant:normal;font-weight:normal;font-stretch:normal;font-size:42.6667px;font-family:Verdana;-inkscape-font-specification:Verdana;text-align:center;writing-mode:lr-tb;direction:ltr;white-space:pre;shape-inside:url(#rect1);fill:#ffffff"
       x="159.55957"
       y="0"
       transform="translate(-136.72756,-12.584735)"><tspan
         x="239.17339"
         y="395.93589"
         id="tspan3">by <tspan
   style="font-weight:bold;-inkscape-font-specification:'Verdana Bold'"
   id="tspan1">Klimondra</tspan></tspan></text></g></svg>
