<svg xmlns="http://www.w3.org/2000/svg" width="1024" height="1024" viewBox="0 0 1024 1024" version="1.1"><path d="M 588 629.710 C 572.748 632.380, 552.937 637.709, 539.475 642.762 C 523.911 648.606, 494.123 658.453, 482.936 661.455 C 475.253 663.516, 470.058 667.586, 466.160 674.596 C 464.355 677.843, 461.471 682.669, 459.751 685.320 C 455.222 692.304, 455.361 699.479, 460.249 711 C 472.338 739.496, 482.654 767.077, 488.934 787.698 C 492.403 799.090, 496.350 805.214, 502.151 808.209 C 516.143 815.432, 531.920 805.534, 531.972 789.500 C 531.993 783.327, 530.831 779.023, 526.034 767.500 C 515.996 743.390, 510.130 726.537, 511.350 725.316 C 513.657 723.010, 523.662 738.931, 537.171 766.404 L 544.500 781.308 544.832 799.198 C 545.429 831.448, 541.203 843.446, 521.679 864.915 C 511.866 875.706, 506.114 880.101, 492.500 887.211 C 484.677 891.297, 484.223 891.403, 472 891.991 C 455.990 892.762, 451.374 895.073, 447.548 904.232 C 443.516 913.882, 448.762 925.018, 459.500 929.601 C 465.470 932.150, 482.830 932.685, 492.144 930.607 C 501.282 928.569, 506.722 926.061, 523.021 916.373 C 534.401 909.610, 537.308 907.276, 548.260 896.115 C 561.557 882.562, 564.174 879.139, 571.281 866 C 581.653 846.826, 584.992 830.858, 584.997 800.410 C 585.001 772.142, 584.643 770.830, 568.089 738.409 C 553.009 708.874, 551.124 705.914, 541.216 696.198 C 537.121 692.183, 533.934 688.745, 534.135 688.559 C 535.034 687.728, 557.283 679.034, 564.500 676.694 C 580.942 671.363, 589.782 669.802, 607.500 669.102 C 625.800 668.379, 628.026 667.793, 633.186 662.339 C 634.664 660.778, 636.351 658.233, 636.936 656.685 C 638.405 652.798, 638.268 645.576, 636.653 641.718 C 634.822 637.345, 627.976 631.365, 623.321 630.072 C 619.677 629.060, 593.258 628.790, 588 629.710 M 362.360 666.923 C 354.842 669.630, 336.369 679.930, 331.612 684.067 C 329.350 686.034, 325.025 689.464, 322 691.689 C 313.942 697.618, 309.137 702.269, 298.948 714 C 288.840 725.640, 281.885 738.317, 275.908 756 C 272.861 765.014, 272.672 766.446, 272.226 784 C 271.665 806.043, 272.988 820.040, 276.587 830.148 C 281.157 842.983, 288.732 857.564, 295.471 866.500 C 299.062 871.260, 302 875.572, 302 876.080 C 302 876.589, 300.171 878.658, 297.935 880.677 C 295.700 882.697, 293.225 885.599, 292.435 887.125 C 290.517 890.835, 290.614 899.338, 292.621 903.300 C 296.559 911.078, 299.703 912.664, 321.553 917.901 C 330.874 920.135, 340.975 922.695, 344 923.590 C 352.290 926.043, 363.760 931.579, 369.444 935.870 C 377.360 941.846, 380.857 943.281, 388.760 943.793 C 394.089 944.139, 397.197 943.815, 400.446 942.574 C 405.320 940.712, 411.427 934.617, 413.580 929.463 C 418.611 917.423, 414.423 891.597, 402.603 861.775 C 390.750 831.866, 391.034 832.833, 391.187 822.976 C 391.315 814.747, 391.102 813.700, 388.413 809.371 C 384.646 803.305, 379.404 800.489, 371.961 800.531 C 365.559 800.568, 358.510 804.071, 355.044 808.938 C 349.978 816.053, 348.623 827.620, 351.465 839.500 C 352.916 845.569, 360.038 865.018, 366.028 879.270 C 367.824 883.543, 368.989 887.345, 368.615 887.718 C 368.242 888.091, 366.039 887.845, 363.718 887.171 C 361.398 886.497, 355 884.798, 349.500 883.394 C 344 881.991, 339.102 880.458, 338.615 879.987 C 338.105 879.493, 338.423 877.401, 339.365 875.045 C 341.583 869.503, 341.455 861.812, 339.067 857.132 C 338.004 855.048, 334.382 850.003, 331.018 845.921 C 323.112 836.328, 314.383 818.913, 313.014 810 C 311.507 800.193, 311.783 780.968, 313.553 772.397 C 318.041 750.670, 331.286 734.078, 360.680 713.361 C 363.129 711.635, 367.241 709.700, 369.817 709.062 C 382.831 705.836, 384.768 704.976, 388.755 700.650 C 393.655 695.334, 395.366 690.423, 394.779 683.353 C 393.570 668.773, 378.473 661.121, 362.360 666.923" stroke="none" fill="#f8c303" fill-rule="evenodd"/><path d="M 795.500 192.880 C 792.750 193.875, 786.844 196.299, 782.375 198.268 C 770.157 203.651, 757.645 207.561, 746.500 209.480 C 741 210.428, 732.450 212.242, 727.500 213.513 C 722.550 214.783, 711.975 217.023, 704 218.490 C 696.025 219.957, 679.375 223.110, 667 225.497 C 647.478 229.262, 622.567 233.478, 608.145 235.459 C 586.877 238.380, 582.046 262.949, 600.867 272.469 C 606.421 275.279, 617.225 275.553, 629.086 273.185 C 634.814 272.042, 643.100 270.597, 647.500 269.974 C 651.900 269.351, 662.700 267.306, 671.500 265.430 C 680.300 263.553, 692.225 261.322, 698 260.472 C 709.799 258.733, 729.940 254.679, 737.500 252.520 C 740.250 251.735, 748.350 249.950, 755.500 248.555 C 762.650 247.159, 772.071 244.881, 776.435 243.494 C 781.200 241.979, 784.734 241.334, 785.280 241.880 C 786.378 242.978, 780.887 286.671, 776.909 308.500 C 774.127 323.762, 773.589 325.085, 768.376 329.442 C 757.917 338.184, 757.375 349.640, 766.919 360.254 C 775.221 369.488, 787.100 372.551, 796.661 367.922 C 802.094 365.292, 805.302 361.481, 807.878 354.595 C 810.446 347.733, 817.560 312.569, 818.924 300 C 819.491 294.775, 820.425 288.026, 820.999 285.001 C 825.346 262.098, 828.054 222.077, 826.054 210.283 C 823.313 194.116, 811.185 187.208, 795.500 192.880 M 710.984 262.853 C 709.068 263.873, 706.150 266.613, 704.500 268.943 C 701.717 272.873, 701.500 273.814, 701.500 281.946 L 701.500 290.713 694.500 298.536 C 683.345 311.003, 675.139 319.088, 665.777 326.836 C 660.979 330.806, 655.354 336.088, 653.277 338.574 C 651.200 341.059, 645.666 346.159, 640.980 349.906 C 629.073 359.428, 612.840 374.219, 597.530 389.497 C 590.364 396.649, 580.675 405.830, 576 409.900 C 567.288 417.484, 545.311 437.838, 520.522 461.281 C 498.968 481.665, 475.573 505.682, 468.924 514.250 C 465.616 518.513, 462.512 522, 462.026 522 C 461.540 522, 460.412 519.413, 459.520 516.250 C 455.488 501.955, 443.190 464.068, 435.419 442 C 432.418 433.475, 428.212 420.875, 426.075 414 C 423.937 407.125, 420.172 395.875, 417.708 389 C 398.853 336.392, 399.578 337.981, 392.148 333.006 C 383.262 327.056, 373.471 328.120, 365.981 335.850 C 360.245 341.771, 358.888 346.197, 357.966 362 C 357.143 376.117, 355.224 383.324, 348.511 397.500 C 341.025 413.312, 311.762 451.086, 295.068 466.488 C 292.081 469.245, 283.081 477.549, 275.068 484.941 C 267.056 492.334, 256.675 502.405, 252 507.321 C 229.315 531.176, 177.245 584.271, 172.611 588.271 C 169.735 590.754, 163.727 594.623, 159.260 596.870 C 148.652 602.203, 145.730 605.879, 145.175 614.587 C 144.830 620.015, 145.139 621.561, 147.311 625.267 C 152.946 634.882, 167.395 638.171, 179.553 632.604 C 189.183 628.195, 200.802 618.043, 225.643 592.331 C 238.838 578.674, 258.153 558.686, 268.567 547.914 C 278.980 537.141, 293.980 522.291, 301.900 514.914 C 320.616 497.480, 332.477 485.690, 343.094 473.972 C 351.740 464.427, 377.793 429.635, 381.481 422.708 C 382.570 420.662, 383.920 419.130, 384.481 419.306 C 385.439 419.605, 397.832 455.141, 405.473 479.500 C 407.370 485.550, 410.781 495.675, 413.052 502 C 415.323 508.325, 420.329 526.100, 424.177 541.500 C 431.052 569.020, 431.154 569.615, 430.086 576.193 C 428.524 585.820, 428.734 590.929, 430.995 598.248 C 437.217 618.394, 461.191 625.936, 473.704 611.684 C 479.023 605.626, 480.289 597.392, 477.500 587 C 475.581 579.852, 475.619 575.647, 477.636 571.700 C 478.536 569.940, 484.048 561.774, 489.886 553.553 C 502.186 536.233, 519.904 517.046, 547.188 491.500 C 557.174 482.150, 570.779 469.289, 577.422 462.920 C 588.198 452.588, 603.681 438.706, 618.411 426.169 C 621.210 423.787, 630.475 414.757, 639 406.103 C 647.525 397.449, 659.225 386.578, 665 381.945 C 670.775 377.312, 679.100 369.917, 683.500 365.511 C 687.900 361.105, 695.770 353.702, 700.989 349.060 C 717.897 334.022, 741.392 307.001, 746.827 296.342 C 753.459 283.334, 748.566 271.560, 733.528 264.345 C 725.178 260.338, 716.760 259.781, 710.984 262.853" stroke="none" fill="#0df505" fill-rule="evenodd"/><path d="M 477.508 40.041 C 411.145 44.653, 351.683 60.631, 294.606 89.188 C 201.814 135.616, 127.616 209.814, 81.188 302.606 C 14.333 436.229, 14.439 594.102, 81.476 727.953 C 122.664 810.191, 186.386 878.424, 265.885 925.416 C 389.886 998.713, 544.300 1011.077, 679 958.494 C 771.951 922.209, 850.613 858.238, 905.249 774.500 C 945.799 712.352, 970.543 643.191, 979.668 566.500 C 982.221 545.037, 982.221 484.963, 979.668 463.500 C 968.128 366.508, 931.934 282.234, 869.917 207.954 C 857.292 192.832, 831.628 166.959, 816 153.598 C 740.797 89.303, 648.197 50.260, 549 41.024 C 532.811 39.517, 492.942 38.969, 477.508 40.041 M 795.500 192.880 C 792.750 193.875, 786.844 196.299, 782.375 198.268 C 770.157 203.651, 757.645 207.561, 746.500 209.480 C 741 210.428, 732.450 212.242, 727.500 213.513 C 722.550 214.783, 711.975 217.023, 704 218.490 C 696.025 219.957, 679.375 223.110, 667 225.497 C 647.478 229.262, 622.567 233.478, 608.145 235.459 C 586.877 238.380, 582.046 262.949, 600.867 272.469 C 606.421 275.279, 617.225 275.553, 629.086 273.185 C 634.814 272.042, 643.100 270.597, 647.500 269.974 C 651.900 269.351, 662.700 267.306, 671.500 265.430 C 680.300 263.553, 692.225 261.322, 698 260.472 C 709.799 258.733, 729.940 254.679, 737.500 252.520 C 740.250 251.735, 748.350 249.950, 755.500 248.555 C 762.650 247.159, 772.071 244.881, 776.435 243.494 C 781.200 241.979, 784.734 241.334, 785.280 241.880 C 786.378 242.978, 780.887 286.671, 776.909 308.500 C 774.127 323.762, 773.589 325.085, 768.376 329.442 C 757.917 338.184, 757.375 349.640, 766.919 360.254 C 775.221 369.488, 787.100 372.551, 796.661 367.922 C 802.094 365.292, 805.302 361.481, 807.878 354.595 C 810.446 347.733, 817.560 312.569, 818.924 300 C 819.491 294.775, 820.425 288.026, 820.999 285.001 C 825.346 262.098, 828.054 222.077, 826.054 210.283 C 823.313 194.116, 811.185 187.208, 795.500 192.880 M 710.984 262.853 C 709.068 263.873, 706.150 266.613, 704.500 268.943 C 701.717 272.873, 701.500 273.814, 701.500 281.946 L 701.500 290.713 694.500 298.536 C 683.345 311.003, 675.139 319.088, 665.777 326.836 C 660.979 330.806, 655.354 336.088, 653.277 338.574 C 651.200 341.059, 645.666 346.159, 640.980 349.906 C 629.073 359.428, 612.840 374.219, 597.530 389.497 C 590.364 396.649, 580.675 405.830, 576 409.900 C 567.288 417.484, 545.311 437.838, 520.522 461.281 C 498.968 481.665, 475.573 505.682, 468.924 514.250 C 465.616 518.513, 462.512 522, 462.026 522 C 461.540 522, 460.412 519.413, 459.520 516.250 C 455.488 501.955, 443.190 464.068, 435.419 442 C 432.418 433.475, 428.212 420.875, 426.075 414 C 423.937 407.125, 420.172 395.875, 417.708 389 C 398.853 336.392, 399.578 337.981, 392.148 333.006 C 383.262 327.056, 373.471 328.120, 365.981 335.850 C 360.245 341.771, 358.888 346.197, 357.966 362 C 357.143 376.117, 355.224 383.324, 348.511 397.500 C 341.025 413.312, 311.762 451.086, 295.068 466.488 C 292.081 469.245, 283.081 477.549, 275.068 484.941 C 267.056 492.334, 256.675 502.405, 252 507.321 C 229.315 531.176, 177.245 584.271, 172.611 588.271 C 169.735 590.754, 163.727 594.623, 159.260 596.870 C 148.652 602.203, 145.730 605.879, 145.175 614.587 C 144.830 620.015, 145.139 621.561, 147.311 625.267 C 152.946 634.882, 167.395 638.171, 179.553 632.604 C 189.183 628.195, 200.802 618.043, 225.643 592.331 C 238.838 578.674, 258.153 558.686, 268.567 547.914 C 278.980 537.141, 293.980 522.291, 301.900 514.914 C 320.616 497.480, 332.477 485.690, 343.094 473.972 C 351.740 464.427, 377.793 429.635, 381.481 422.708 C 382.570 420.662, 383.920 419.130, 384.481 419.306 C 385.439 419.605, 397.832 455.141, 405.473 479.500 C 407.370 485.550, 410.781 495.675, 413.052 502 C 415.323 508.325, 420.329 526.100, 424.177 541.500 C 431.052 569.020, 431.154 569.615, 430.086 576.193 C 428.524 585.820, 428.734 590.929, 430.995 598.248 C 437.217 618.394, 461.191 625.936, 473.704 611.684 C 479.023 605.626, 480.289 597.392, 477.500 587 C 475.581 579.852, 475.619 575.647, 477.636 571.700 C 478.536 569.940, 484.048 561.774, 489.886 553.553 C 502.186 536.233, 519.904 517.046, 547.188 491.500 C 557.174 482.150, 570.779 469.289, 577.422 462.920 C 588.198 452.588, 603.681 438.706, 618.411 426.169 C 621.210 423.787, 630.475 414.757, 639 406.103 C 647.525 397.449, 659.225 386.578, 665 381.945 C 670.775 377.312, 679.100 369.917, 683.500 365.511 C 687.900 361.105, 695.770 353.702, 700.989 349.060 C 717.897 334.022, 741.392 307.001, 746.827 296.342 C 753.459 283.334, 748.566 271.560, 733.528 264.345 C 725.178 260.338, 716.760 259.781, 710.984 262.853 M 588 629.710 C 572.748 632.380, 552.937 637.709, 539.475 642.762 C 523.911 648.606, 494.123 658.453, 482.936 661.455 C 475.253 663.516, 470.058 667.586, 466.160 674.596 C 464.355 677.843, 461.471 682.669, 459.751 685.320 C 455.222 692.304, 455.361 699.479, 460.249 711 C 472.338 739.496, 482.654 767.077, 488.934 787.698 C 492.403 799.090, 496.350 805.214, 502.151 808.209 C 516.143 815.432, 531.920 805.534, 531.972 789.500 C 531.993 783.327, 530.831 779.023, 526.034 767.500 C 515.996 743.390, 510.130 726.537, 511.350 725.316 C 513.657 723.010, 523.662 738.931, 537.171 766.404 L 544.500 781.308 544.832 799.198 C 545.429 831.448, 541.203 843.446, 521.679 864.915 C 511.866 875.706, 506.114 880.101, 492.500 887.211 C 484.677 891.297, 484.223 891.403, 472 891.991 C 455.990 892.762, 451.374 895.073, 447.548 904.232 C 443.516 913.882, 448.762 925.018, 459.500 929.601 C 465.470 932.150, 482.830 932.685, 492.144 930.607 C 501.282 928.569, 506.722 926.061, 523.021 916.373 C 534.401 909.610, 537.308 907.276, 548.260 896.115 C 561.557 882.562, 564.174 879.139, 571.281 866 C 581.653 846.826, 584.992 830.858, 584.997 800.410 C 585.001 772.142, 584.643 770.830, 568.089 738.409 C 553.009 708.874, 551.124 705.914, 541.216 696.198 C 537.121 692.183, 533.934 688.745, 534.135 688.559 C 535.034 687.728, 557.283 679.034, 564.500 676.694 C 580.942 671.363, 589.782 669.802, 607.500 669.102 C 625.800 668.379, 628.026 667.793, 633.186 662.339 C 634.664 660.778, 636.351 658.233, 636.936 656.685 C 638.405 652.798, 638.268 645.576, 636.653 641.718 C 634.822 637.345, 627.976 631.365, 623.321 630.072 C 619.677 629.060, 593.258 628.790, 588 629.710 M 362.360 666.923 C 354.842 669.630, 336.369 679.930, 331.612 684.067 C 329.350 686.034, 325.025 689.464, 322 691.689 C 313.942 697.618, 309.137 702.269, 298.948 714 C 288.840 725.640, 281.885 738.317, 275.908 756 C 272.861 765.014, 272.672 766.446, 272.226 784 C 271.665 806.043, 272.988 820.040, 276.587 830.148 C 281.157 842.983, 288.732 857.564, 295.471 866.500 C 299.062 871.260, 302 875.572, 302 876.080 C 302 876.589, 300.171 878.658, 297.935 880.677 C 295.700 882.697, 293.225 885.599, 292.435 887.125 C 290.517 890.835, 290.614 899.338, 292.621 903.300 C 296.559 911.078, 299.703 912.664, 321.553 917.901 C 330.874 920.135, 340.975 922.695, 344 923.590 C 352.290 926.043, 363.760 931.579, 369.444 935.870 C 377.360 941.846, 380.857 943.281, 388.760 943.793 C 394.089 944.139, 397.197 943.815, 400.446 942.574 C 405.320 940.712, 411.427 934.617, 413.580 929.463 C 418.611 917.423, 414.423 891.597, 402.603 861.775 C 390.750 831.866, 391.034 832.833, 391.187 822.976 C 391.315 814.747, 391.102 813.700, 388.413 809.371 C 384.646 803.305, 379.404 800.489, 371.961 800.531 C 365.559 800.568, 358.510 804.071, 355.044 808.938 C 349.978 816.053, 348.623 827.620, 351.465 839.500 C 352.916 845.569, 360.038 865.018, 366.028 879.270 C 367.824 883.543, 368.989 887.345, 368.615 887.718 C 368.242 888.091, 366.039 887.845, 363.718 887.171 C 361.398 886.497, 355 884.798, 349.500 883.394 C 344 881.991, 339.102 880.458, 338.615 879.987 C 338.105 879.493, 338.423 877.401, 339.365 875.045 C 341.583 869.503, 341.455 861.812, 339.067 857.132 C 338.004 855.048, 334.382 850.003, 331.018 845.921 C 323.112 836.328, 314.383 818.913, 313.014 810 C 311.507 800.193, 311.783 780.968, 313.553 772.397 C 318.041 750.670, 331.286 734.078, 360.680 713.361 C 363.129 711.635, 367.241 709.700, 369.817 709.062 C 382.831 705.836, 384.768 704.976, 388.755 700.650 C 393.655 695.334, 395.366 690.423, 394.779 683.353 C 393.570 668.773, 378.473 661.121, 362.360 666.923" stroke="none" fill="#444543" fill-rule="evenodd"/></svg>